<svg xmlns="http://www.w3.org/2000/svg" width="14.517" height="18.507" viewBox="0 0 14.517 18.507">
  <g id="Group_709" data-name="Group 709" transform="translate(-31.805 -424.327)" opacity="0.9">
    <path id="Path_27" data-name="Path 27" d="M13.893,3.644,7.128.04a.336.336,0,0,0-.32,0L.23,3.646a.337.337,0,0,0-.175.3V8.651A9.75,9.75,0,0,0,5.9,17.574l.913.4a.336.336,0,0,0,.268,0l1.029-.444a9.731,9.731,0,0,0,5.963-8.971V3.942a.337.337,0,0,0-.178-.3Zm-.5,4.913a9.059,9.059,0,0,1-5.553,8.351h0l-.9.387-.778-.34A9.076,9.076,0,0,1,.728,8.651V4.141L6.972.719,13.4,4.144Zm0,0" transform="translate(32 424.582)" fill="#676f86" stroke="#676f86" stroke-width="0.5"/>
    <path id="Path_28" data-name="Path 28" d="M80.5,147.6a.375.375,0,0,0-.57.487l1.979,2.318a.375.375,0,0,0,.521.047l4.61-3.751a.375.375,0,0,0-.473-.581l-4.326,3.519Zm0,0" transform="translate(-44.447 285.292)" fill="#676f86" stroke="#676f86" stroke-width="0.5"/>
  </g>
</svg>
