<svg xmlns="http://www.w3.org/2000/svg" width="19.359" height="22.5" viewBox="0 0 19.359 22.5">
  <path id="advertising" d="M44.947,3.817a1.292,1.292,0,0,0-2.025,1.574c-1,3.711-1.468,4.129-3.378,5.834-.68.607-1.527,1.363-2.634,2.471a1.24,1.24,0,0,0,0,1.752l3.05,3.05a1.241,1.241,0,0,0,1.479.206l3.127,3.127a.594.594,0,0,0,.425.17.7.7,0,0,0,.1-.008.829.829,0,0,0,.457-.237l1.088-1.088a.7.7,0,0,0,.075-.986L45.032,18a2.456,2.456,0,0,0-.266-2.783c1.275-1.386,2-1.853,5.25-2.73A1.292,1.292,0,0,0,51.59,10.46Zm-4.5,14.194-3.05-3.05a.553.553,0,0,1,0-.779c.764-.764,1.4-1.36,1.95-1.855l3.734,3.734c-.495.546-1.09,1.185-1.855,1.95a.553.553,0,0,1-.779,0Zm5.708,2.169-1.088,1.088a.176.176,0,0,1-.051.037l-3.056-3.056c.436-.442.815-.84,1.151-1.2l3.081,3.081A.174.174,0,0,1,46.154,20.18Zm-1.635-2.7-.945-.944c.221-.243.422-.468.608-.677l.117-.13A1.772,1.772,0,0,1,44.519,17.485Zm-.849-2.08-.129.144-3.683-3.683L40,11.738c1.909-1.7,2.486-2.22,3.467-5.743l5.944,5.944c-3.523.981-4.039,1.558-5.743,3.467ZM51.1,11.8a.606.606,0,0,1-.856,0L43.605,5.158a.6.6,0,0,1,.856-.856L51.1,10.947A.606.606,0,0,1,51.1,11.8Zm-.969-6.53a.344.344,0,0,1,0-.486L52.022,2.9a.344.344,0,1,1,.486.486L50.621,5.272a.344.344,0,0,1-.486,0ZM55.407,9.9a.344.344,0,0,1-.344.344H52.4a.344.344,0,1,1,0-.688h2.668A.344.344,0,0,1,55.407,9.9ZM45.164,3.012V.344a.344.344,0,0,1,.688,0V3.012a.344.344,0,0,1-.687,0Z" transform="translate(-36.298 0.25)" fill="#676f86" stroke="#676f86" stroke-width="0.5" opacity="0.9"/>
</svg>
