<svg id="Group_1047" data-name="Group 1047" xmlns="http://www.w3.org/2000/svg" width="50"
    height="50" viewBox="0 0 50 50">
    <g id="Group_1026" data-name="Group 1026">
        <g id="Group_1018" data-name="Group 1018" transform="translate(-366 -385)" opacity="0.3">
            <g id="Group_1017" data-name="Group 1017" transform="translate(406 426)">
                <path id="Path_307" data-name="Path 307"
                    d="M407,426a1,1,0,1,0,1,1A1,1,0,0,0,407,426Z" transform="translate(-406 -426)"
                    fill="#147bd9" />
            </g>
        </g>
        <g id="Group_1020" data-name="Group 1020" opacity="0.3">
            <g id="Group_1019" data-name="Group 1019">
                <path id="Path_308" data-name="Path 308"
                    d="M43.555,4.632V2.93A2.933,2.933,0,0,0,40.625,0H9.375a2.933,2.933,0,0,0-2.93,2.93v1.7C.075,16.4,0,16.047,0,16.6H0v1.953a4.86,4.86,0,0,0,2.539,4.162V49.023A.977.977,0,0,0,3.516,50H46.484a.977.977,0,0,0,.977-.977V22.717A4.915,4.915,0,0,0,50,18.555V16.6h0C50,16.041,49.862,16.281,43.555,4.632Zm3.817,10.993H41.329L38.074,5.859H42ZM33.789,17.578h5.859v.977a2.93,2.93,0,0,1-5.859,0Zm-.149-1.953L32.012,5.859h4l3.255,9.766ZM8.4,2.93a.978.978,0,0,1,.977-.977h31.25a.978.978,0,0,1,.977.977v.977H8.4ZM31.836,17.578v.977a2.93,2.93,0,0,1-5.859,0v-.977Zm-5.859-1.953V5.859h4.056l1.628,9.766Zm-7.636,0,1.628-9.766h4.055v9.766Zm5.683,1.953v.977a2.93,2.93,0,0,1-5.859,0v-.977ZM10.73,15.625l3.255-9.766h4L16.36,15.625Zm5.481,1.953v.977a2.93,2.93,0,0,1-5.859,0v-.977ZM8,5.859h3.927L8.671,15.625H2.628Zm-6.046,12.7v-.977H8.4v.977a3.209,3.209,0,0,1-3.223,2.93A3.273,3.273,0,0,1,3.9,21.217,3.037,3.037,0,0,1,1.953,18.555ZM20.117,48.047H10.352v-8.4h9.766Zm0-10.352H10.352V29.3h9.766ZM45.508,48.047H22.07V28.32a.977.977,0,0,0-.977-.977H9.375a.977.977,0,0,0-.977.977V48.047H4.492V23.39a5.074,5.074,0,0,0,.684.048,5.383,5.383,0,0,0,3.564-1.4,5.28,5.28,0,0,0,.587-.626,4.877,4.877,0,0,0,7.861.067,4.878,4.878,0,0,0,7.813,0,4.878,4.878,0,0,0,7.813,0,4.877,4.877,0,0,0,7.861-.067,5.287,5.287,0,0,0,.587.626,5.383,5.383,0,0,0,3.564,1.4,5.053,5.053,0,0,0,.684-.047Zm2.539-29.492a3.04,3.04,0,0,1-2.019,2.693,3.244,3.244,0,0,1-1.2.237,3.209,3.209,0,0,1-3.223-2.93v-.977h6.445Z"
                    fill="#147bd9" />
            </g>
        </g>
        <g id="Group_1022" data-name="Group 1022" transform="translate(-240 -252.6)" opacity="0.3">
            <g id="Group_1021" data-name="Group 1021" transform="translate(266 280)">
                <path id="Path_309" data-name="Path 309"
                    d="M283,290.6h-1V281a1,1,0,0,0-1-1H269a1,1,0,0,0-1,1v9.6h-1a1,1,0,0,0,0,2h16a1,1,0,0,0,0-2Zm-3,0H270V282h10Z"
                    transform="translate(-266 -280)" fill="#147bd9" />
            </g>
        </g>
        <g id="Group_1024" data-name="Group 1024" transform="translate(-258 -385)" opacity="0.3">
            <g id="Group_1023" data-name="Group 1023" transform="translate(286 426)">
                <path id="Path_310" data-name="Path 310"
                    d="M295,426h-8a1,1,0,0,0,0,2h8a1,1,0,0,0,0-2Z" transform="translate(-286 -426)"
                    fill="#147bd9" />
            </g>
        </g>
    </g>
</svg>
