<svg xmlns="http://www.w3.org/2000/svg" width="56.299" height="50" viewBox="0 0 56.299 50">
    <path id="Path_314" data-name="Path 314"
        d="M57.627,23.59H44.259V17.572a2.5,2.5,0,0,0-2.5-2.5h-17.2a2.5,2.5,0,0,0-2.5,2.5V23.59H8.672A3.685,3.685,0,0,0,5,27.262V61.379A3.684,3.684,0,0,0,8.672,65.07H57.627A3.684,3.684,0,0,0,61.3,61.379V27.262A3.685,3.685,0,0,0,57.627,23.59ZM23.766,17.572a.769.769,0,0,1,.763-.763h17.2a.769.769,0,0,1,.763.763V23.59H23.766ZM8.672,25.348H57.627a1.914,1.914,0,0,1,1.908,1.908V39.141H39.305V37.846a1.758,1.758,0,0,0-1.758-1.758H28.771a1.758,1.758,0,0,0-1.758,1.758h0v1.32H6.758V27.281a1.914,1.914,0,0,1,1.9-1.933Zm28.856,12.5v4.379H28.771V37.846Zm20.08,25.441H8.672a1.914,1.914,0,0,1-1.914-1.908V40.93H26.994v1.32a1.758,1.758,0,0,0,1.758,1.758h8.776a1.758,1.758,0,0,0,1.758-1.758h0V40.93H59.541V61.379a1.914,1.914,0,0,1-1.914,1.914h0Z"
        transform="translate(-5 -15.07)" fill="#147bd9" opacity="0.3" />
</svg>
