<svg xmlns="http://www.w3.org/2000/svg" width="450" height="482" viewBox="0 0 450 482">
  <g id="Group_950" data-name="Group 950" transform="translate(-1470 -540)">
    <path id="Path_229" data-name="Path 229" d="M0,0H450V482H0Z" transform="translate(1470 540)" fill="#fff"/>
    <text id="Sollte_die_Filiale_an_dem_den_zuvor_ausgewählten_Tag_en_geschlossen_sein_so_lassen_Sie_die_unten_stehenden_Felder_leer." data-name="Sollte die Filiale an dem/den zuvor ausgewählten Tag/en geschlossen sein so lassen Sie die unten stehenden Felder leer." transform="translate(1520 687)" fill="#676f86" font-size="14" font-family="Inter-Regular, Inter"><tspan x="0" y="14">Sollte die Filiale an dem/den zuvor ausgewählten </tspan><tspan x="0" y="36">Tag/en geschlossen sein so lassen Sie die unten </tspan><tspan x="0" y="58">stehenden Felder leer.</tspan></text>
    <text id="Öffnungszeiten_der_Filiale_hinzufügen." data-name="Öffnungszeiten
der Filiale hinzufügen." transform="translate(1520 608)" fill="#676f86" font-size="24" font-family="Inter-SemiBold, Inter" font-weight="600"><tspan x="0" y="0">Öffnungszeiten</tspan><tspan x="0" y="29">der Filiale hinzufügen.</tspan></text>
    <rect id="Rectangle_971" data-name="Rectangle 971" width="45" height="3" transform="translate(1520 664)" fill="#676f86" opacity="0.1"/>
    <g id="Group_927" data-name="Group 927" transform="translate(0 397)">
      <text id="ZURÜCK" transform="translate(1572.248 562)" fill="#147bd9" font-size="14" font-family="Inter-Regular, Inter"><tspan x="0" y="0">ZURÜCK</tspan></text>
      <g id="Group_811" data-name="Group 811" transform="translate(1520 538)">
        <g id="Rectangle_756" data-name="Rectangle 756" fill="none" stroke="#707070" stroke-width="1" opacity="0.3">
          <rect width="162.5" height="37" rx="18.5" stroke="none"/>
          <rect x="0.5" y="0.5" width="161.5" height="36" rx="18" fill="none"/>
        </g>
      </g>
    </g>
    <g id="Group_928" data-name="Group 928" transform="translate(1120 347)">
      <g id="Rectangle_649" data-name="Rectangle 649" transform="translate(401 500)" fill="none" stroke="#676f86" stroke-width="1" stroke-dasharray="7" opacity="0.3">
        <rect width="349" height="50" rx="4" stroke="none"/>
        <rect x="0.5" y="0.5" width="348" height="49" rx="3.5" fill="none"/>
      </g>
      <g id="Group_765" data-name="Group 765" transform="translate(478 514)">
        <text id="Öffnungszeit_hinzufügen" data-name="Öffnungszeit hinzufügen" transform="translate(32 17)" fill="#147bd9" font-size="14" font-family="Inter-Regular, Inter"><tspan x="0" y="0">Öffnungszeit hinzufügen</tspan></text>
        <path id="Path_141" data-name="Path 141" d="M13,2A11,11,0,1,0,24,13,11,11,0,0,0,13,2Zm4.714,11.786H13.786v3.929a.786.786,0,1,1-1.571,0V13.786H8.286a.786.786,0,0,1,0-1.571h3.929V8.286a.786.786,0,1,1,1.571,0v3.929h3.929a.786.786,0,1,1,0,1.571Z" transform="translate(-2 -2)" fill="#147bd9"/>
      </g>
    </g>
    <g id="Group_933" data-name="Group 933" transform="translate(-90.5 908)">
      <rect id="Rectangle_756-2" data-name="Rectangle 756" width="162.5" height="37" rx="18.5" transform="translate(1798 27)" fill="#147bd9"/>
      <text id="WEITER" transform="translate(1853.25 51)" fill="#fff" font-size="14" font-family="Inter-Regular, Inter"><tspan x="0" y="0">WEITER</tspan></text>
    </g>
    <g id="Group_934" data-name="Group 934" transform="translate(1471 417)" opacity="0.3">
      <g id="Rectangle_491" data-name="Rectangle 491" transform="translate(50 355)" fill="#fff" stroke="#676f86" stroke-width="1">
        <rect width="125" height="50" rx="4" stroke="none"/>
        <rect x="0.5" y="0.5" width="124" height="49" rx="3.5" fill="none"/>
      </g>
    </g>
    <g id="Group_935" data-name="Group 935" transform="translate(1646 417)">
      <g id="Rectangle_491-2" data-name="Rectangle 491" transform="translate(50 355)" fill="#fff" stroke="#676f86" stroke-width="1" opacity="0.3">
        <rect width="125" height="50" rx="4" stroke="none"/>
        <rect x="0.5" y="0.5" width="124" height="49" rx="3.5" fill="none"/>
      </g>
    </g>
    <text id="_-" data-name="-" transform="translate(1667 801)" fill="#676f86" font-size="18" font-family="Inter-Medium, Inter" font-weight="500"><tspan x="0" y="0">-</tspan></text>
    <path id="Path_230" data-name="Path 230" d="M14.5,2A12.5,12.5,0,1,0,27,14.5,12.5,12.5,0,0,0,14.5,2Zm5.357,13.393c-8.374.008-2.479.013-10.714,0a.893.893,0,0,1,0-1.786c8.894,0,2.862-.038,10.714,0a.893.893,0,1,1,0,1.786Z" transform="translate(1844 782.5)" fill="#e10054" stroke="#fff" stroke-width="1"/>
    <text id="_08:00" data-name="08:00" transform="translate(1546 802.5)" fill="#676f86" font-size="14" font-family="Inter-Medium, Inter" font-weight="500"><tspan x="0" y="0">08:00</tspan></text>
    <rect id="Rectangle_972" data-name="Rectangle 972" width="44.5" height="13" transform="translate(1541.5 766)" fill="#fff"/>
    <text id="Öffnet" transform="translate(1546 777)" fill="#676f86" font-size="12" font-family="Inter-Regular, Inter" opacity="0.7"><tspan x="0" y="0">Öffnet</tspan></text>
    <text id="_12:00" data-name="12:00" transform="translate(1721 802.5)" fill="#676f86" font-size="14" font-family="Inter-Medium, Inter" font-weight="500"><tspan x="0" y="0">12:00</tspan></text>
    <rect id="Rectangle_973" data-name="Rectangle 973" width="53.5" height="13" transform="translate(1716.5 766)" fill="#fff"/>
    <text id="Schließt" transform="translate(1721 777)" fill="#676f86" font-size="12" font-family="Inter-Regular, Inter" opacity="0.7"><tspan x="0" y="0">Schließt</tspan></text>
  </g>
</svg>
