<?xml version="1.0" encoding="UTF-8"?>
<svg viewBox="0 0 25 25" xmlns="http://www.w3.org/2000/svg">
    <g fill="#e10054" data-name="Path 214">
        <path d="m12.5 24.5c-3.2053 0-6.2188-1.2482-8.4853-3.5147-2.2665-2.2665-3.5147-5.28-3.5147-8.4853 0-3.2053 1.2482-6.2188 3.5147-8.4853 2.2665-2.2665 5.28-3.5147 8.4853-3.5147 3.2053 0 6.2188 1.2482 8.4853 3.5147 2.2665 2.2665 3.5147 5.28 3.5147 8.4853 0 3.2053-1.2482 6.2188-3.5147 8.4853-2.2665 2.2665-5.28 3.5147-8.4853 3.5147z"/>
        <path d="m12.5 1c-3.0718 0-5.9597 1.1962-8.1317 3.3683-2.1721 2.1721-3.3683 5.06-3.3683 8.1317 0 3.0718 1.1962 5.9597 3.3683 8.1317 2.1721 2.1721 5.06 3.3683 8.1317 3.3683 3.0718 0 5.9597-1.1962 8.1317-3.3683 2.1721-2.1721 3.3683-5.06 3.3683-8.1317 0-3.0718-1.1962-5.9597-3.3683-8.1317-2.1721-2.1721-5.06-3.3683-8.1317-3.3683m0-1c6.9036 0 12.5 5.5964 12.5 12.5 0 6.9036-5.5964 12.5-12.5 12.5-6.9036 0-12.5-5.5964-12.5-12.5 0-6.9036 5.5964-12.5 12.5-12.5z" fill="#fff"/>
    </g>
    <path transform="translate(-258.28 1.491)" d="m276.79 4.995a1.66 1.66 0 0 1 0 2.347l-0.782 0.782-2.347-2.347 0.782-0.782a1.66 1.66 0 0 1 2.347 0zm-11.732 9.386-0.782 3.128 3.128-0.782 8.6-8.6-2.347-2.347z" fill="none" stroke="#fff" data-name="Path 205"/>
</svg>
