<svg xmlns="http://www.w3.org/2000/svg" width="37" height="37" viewBox="0 0 37 37">
  <g id="Group_2471" data-name="Group 2471" transform="translate(-1693 -269)">
    <g id="Group_2473" data-name="Group 2473">
      <g id="Group_2456" data-name="Group 2456" transform="translate(1693 269)">
        <rect id="Rectangle_756" data-name="Rectangle 756" width="37" height="37" rx="18.5" fill="#fff" opacity="0.05"/>
      </g>
      <g id="Group_2470" data-name="Group 2470" transform="translate(1702 278)">
        <g id="Group_627" data-name="Group 627">
          <path id="Path_178" data-name="Path 178" d="M11.937,9.451a1.234,1.234,0,0,1,.325.835v9.095a.618.618,0,0,0,1.051.44l2.537-2.907c.34-.407.527-.609.527-1.012V10.288a1.244,1.244,0,0,1,.325-.835l7.28-7.9A.927.927,0,0,0,23.3,0H5.338a.926.926,0,0,0-.681,1.554Z" transform="translate(-4.41)" fill="none" stroke="#676f86" stroke-width="1"/>
        </g>
      </g>
    </g>
  </g>
</svg>
