<svg xmlns="http://www.w3.org/2000/svg" width="109.091" height="100" viewBox="0 0 109.091 100">
  <path id="iconmonstr-key-thin" d="M72.727,1A36.393,36.393,0,0,0,37.191,45.109L0,78.273V101H27.273V91.909h9.091V82.818h9.091L59.391,71.2A36.366,36.366,0,1,0,72.727,1ZM43.809,78.273,58.555,65.986a34.6,34.6,0,0,0,14.173,3.2A31.818,31.818,0,1,0,40.909,37.364,38.987,38.987,0,0,0,42.2,46.736L4.545,80.309V96.455H22.727V87.364h9.091V78.273Zm.764-18.182L41.541,56.7,9.091,85.8v6.1L44.573,60.091ZM90.909,28.273a9.091,9.091,0,1,0-9.091,9.091A9.094,9.094,0,0,0,90.909,28.273Zm-4.545,0a4.545,4.545,0,1,0-4.545,4.545A4.547,4.547,0,0,0,86.364,28.273Z" transform="translate(0 -1)" fill="#147bd9" fill-rule="evenodd" opacity="0.3"/>
</svg>
