<svg xmlns="http://www.w3.org/2000/svg" width="37" height="37" viewBox="0 0 37 37">
  <g id="Group_2472" data-name="Group 2472" transform="translate(-1650 -269)">
    <g id="Group_2472-2" data-name="Group 2472">
      <g id="Group_2448" data-name="Group 2448" transform="translate(1650 269)">
        <rect id="Rectangle_756" data-name="Rectangle 756" width="37" height="37" rx="18.5" fill="#fff" opacity="0.05"/>
      </g>
      <g id="Group_2471" data-name="Group 2471" transform="translate(1659 277)">
        <g id="Group_628" data-name="Group 628">
          <path id="Path_166" data-name="Path 166" d="M19.711,17.731,14.63,12.623A7.994,7.994,0,0,0,8.1,0a8,8,0,1,0,4.619,14.53l5.112,5.081a1.261,1.261,0,0,0,.922.4,1.227,1.227,0,0,0,.922-.4,1.3,1.3,0,0,0,.031-1.88ZM8.1,14.284A6.28,6.28,0,1,1,14.384,8,6.288,6.288,0,0,1,8.1,14.284Z" transform="translate(-0.1 0)" fill="none" stroke="#676f86" stroke-width="1"/>
        </g>
      </g>
    </g>
  </g>
</svg>
