<svg xmlns="http://www.w3.org/2000/svg" width="49.948" height="50" viewBox="0 0 49.948 50">
    <g id="Group_1037" data-name="Group 1037" transform="translate(-9.997 -9.488)" opacity="0.3">
        <g id="Group_1036" data-name="Group 1036" transform="translate(9.997 9.488)">
            <path id="Path_312" data-name="Path 312"
                d="M33.284,9.511c-.189.02-.774.089-1.289.149a25.421,25.421,0,0,0-20.856,17.3,22.828,22.828,0,0,0-1.131,8.132,21.139,21.139,0,0,0,.714,5.465A22.741,22.741,0,0,0,12.547,45.4,25.364,25.364,0,0,0,26.133,57.838a24.578,24.578,0,0,0,22.721-2.648,21.851,21.851,0,0,0,3.679-3.054,25.151,25.151,0,0,0,7.181-14.024,31.318,31.318,0,0,0,.159-5.911A25.373,25.373,0,0,0,38.045,9.649,43.737,43.737,0,0,0,33.284,9.511Zm5.147,2.321A22.845,22.845,0,0,1,54.6,22.552,23.163,23.163,0,0,1,53.4,48.2a19.8,19.8,0,0,1-2.569,2.856c-.347.109-5.554-2.3-7.607-3.521A10.593,10.593,0,0,1,41.7,46.453l-.486-.466v-.754c0-.724.02-.774.367-1.19a15.943,15.943,0,0,0,2.36-4.275,5.318,5.318,0,0,1,.625-1.21,4.4,4.4,0,0,0,1.111-3.065,4.242,4.242,0,0,0-.456-2.1c-.228-.516-.238-.585-.238-3.283a16.8,16.8,0,0,0-.189-3.65c-.922-4.463-4.413-6.992-9.7-6.992a12.136,12.136,0,0,0-3.59.456,8.428,8.428,0,0,0-5.415,4.433c-.763,1.587-.863,2.142-.932,5.673L25.092,33.1l-.278.635a4.74,4.74,0,0,0,.734,4.78,5.278,5.278,0,0,1,.744,1.438,14.105,14.105,0,0,0,2.251,4.017c.367.456.377.486.377,1.259,0,.794,0,.8-.367,1.17a16.621,16.621,0,0,1-3.947,2.37c-2.856,1.418-5.276,2.449-5.494,2.34a23.131,23.131,0,0,1-2.211-2.44A23.524,23.524,0,0,1,12.616,39.6a19.518,19.518,0,0,1-.506-5.157,21.542,21.542,0,0,1,.178-3.372A22.649,22.649,0,0,1,24.8,13.913a23.416,23.416,0,0,1,8.728-2.321A31.73,31.73,0,0,1,38.432,11.831ZM36.855,21.66a7.651,7.651,0,0,1,3.908,1.448A6.239,6.239,0,0,1,42.805,27c.049.357.1,1.984.1,3.62V33.6l.337.545a2.2,2.2,0,0,1-.436,3.243c-.307.268-.436.506-.734,1.379a12.205,12.205,0,0,1-2.321,4.2l-.615.724v1.339a5.033,5.033,0,0,0,.149,1.676,7.776,7.776,0,0,0,2.539,2.321,61.519,61.519,0,0,0,6.328,3.3l.843.367-.595.427a23.354,23.354,0,0,1-25.23,1.061,11.172,11.172,0,0,1-2.064-1.438c.02-.02.883-.416,1.914-.883A27.792,27.792,0,0,0,29.982,47.8C30.934,46.91,31,46.721,31,45.1a6.274,6.274,0,0,0-.109-1.567,5.425,5.425,0,0,0-.545-.684,11.877,11.877,0,0,1-2.281-4.185,2.545,2.545,0,0,0-.763-1.339,2.041,2.041,0,0,1-.843-1.855,2.136,2.136,0,0,1,.4-1.19l.357-.585.04-3.323c.04-3,.069-3.4.258-4.1.714-2.608,2.519-4.116,5.465-4.582A16.867,16.867,0,0,1,36.855,21.66Z"
                transform="translate(-9.997 -9.488)" fill="#147bd9" />
        </g>
    </g>
</svg>
