<svg xmlns="http://www.w3.org/2000/svg" width="21.998" height="21.999" viewBox="0 0 21.998 21.999">
  <path id="Exclusion_46" data-name="Exclusion 46" d="M17292,4950a11,11,0,1,1,7.775-3.222A10.921,10.921,0,0,1,17292,4950Zm-4.818-11.011a.685.685,0,0,0-.48.194.67.67,0,0,0-.209.475.7.7,0,0,0,.191.5.041.041,0,0,1,.018.018l2.754,2.753a.694.694,0,0,0,.973,0l6.883-6.883a.688.688,0,0,0,.193-.5.669.669,0,0,0-.207-.476.685.685,0,0,0-.959,0l-6.4,6.392-2.268-2.267A.688.688,0,0,0,17287.184,4938.988Z" transform="translate(-17281.002 -4928)" fill="#549d4c"/>
</svg>
