<svg xmlns="http://www.w3.org/2000/svg" width="22" height="22" viewBox="0 0 22 22">
  <g id="Group_2506" data-name="Group 2506" transform="translate(-1497.998 -576.5)">
    <path id="Exclusion_101" data-name="Exclusion 101" d="M17292,4928a11,11,0,1,0,11,11A11,11,0,0,0,17292,4928Z" transform="translate(-15783.002 -4351.5)" fill="#549d4c"/>
    <path id="iconmonstr-eye-thin" d="M8,14.663c-3.375,0-6.388-2.806-8-5.614C1.611,6.314,4.627,4,8,4a9.638,9.638,0,0,1,8,5.041c-1.493,2.952-4.482,5.622-8,5.622ZM.778,9.054C1.34,9.941,4.122,14,8,14c4.2,0,6.739-4.067,7.231-4.935-.514-.8-3.07-4.4-7.231-4.4C3.928,4.666,1.323,8.235.778,9.054ZM8,6A3.332,3.332,0,1,1,4.665,9.331,3.333,3.333,0,0,1,8,6Zm0,.666A2.666,2.666,0,1,1,5.331,9.331,2.667,2.667,0,0,1,8,6.666Z" transform="translate(1500.999 578.168)" fill="#fff" fill-rule="evenodd"/>
  </g>
</svg>
