<svg xmlns="http://www.w3.org/2000/svg" width="187.606" height="42" viewBox="0 0 187.606 42">
    <g id="Group_701" data-name="Group 701" transform="translate(2.6 6)">
        <path id="Path_143" data-name="Path 143" d="M32.6,81.78s0,1.32-1.113,1.32H23.874c-1.762,0-1.809-2.019-1.809-2.019L18.43,45.568a14.5,14.5,0,0,0,1.709.1c4.088,0,9.659-1.734,12.46-4.567Z" transform="translate(-21.03 -47.1)" fill="#fff"/>
        <path id="Path_144" data-name="Path 144" d="M50,81.78s0,1.32,1.167,1.32h8c1.862,0,1.912-2.019,1.912-2.019l3.829-35.513a16.08,16.08,0,0,1-1.8.1C58.8,45.667,52.934,43.932,50,41.1Z" transform="translate(-36 -47.1)" fill="#fff"/>
        <path id="Path_145" data-name="Path 145" d="M101.278,51.368l-.828,2.04A10.588,10.588,0,0,0,93.2,50.574c-7.256,0-12.439,5.819-12.439,14.017S85.943,78.68,93.2,78.68a10.563,10.563,0,0,0,7.16-2.757l.7,1.864h6.317V51.368Zm-6.99,19.249c-3.061,0-5.314-2.6-5.314-6.022s2.233-6,5.314-6,5.309,2.6,5.309,6S97.349,70.618,94.288,70.618Zm45.16-19.992a8.944,8.944,0,0,0-7.276,3.9,7.782,7.782,0,0,0-6.8-3.888,8.823,8.823,0,0,0-6.935,3.634l-1.164-2.86h-5.745V77.8H119.7V63.319c0-3.281,1.214-5.046,3.427-5.046,1.711,0,2.619,1.412,2.619,4.086V77.792H133.7V63.319c0-3.322,1.149-5.046,3.4-5.046,1.736,0,2.649,1.329,2.649,4.086V77.792h8.169V61.237c0-6.23-3.377-10.621-8.46-10.621ZM161.09,78.659c6.307,0,10.492-3.634,10.492-9.126,0-6.692-4.983-7.559-8.731-8.306-2.253-.452-4.069-.8-4.069-2.3a1.938,1.938,0,0,1,2.193-1.947,2.253,2.253,0,0,1,2.509,2.471h7.652c-.1-5.347-4.014-8.924-10.036-8.924s-10.131,3.416-10.131,8.706c0,6.4,4.877,7.636,8.53,8.306,2.278.415,4.074.851,4.074,2.372a2.105,2.105,0,0,1-2.328,2.045,2.566,2.566,0,0,1-2.76-2.819h-7.858c.075,5.71,4.014,9.516,10.472,9.516Zm26.338-8.825c-1.721,0-2.75-1.142-2.75-3.032V58.4h5.755V51.41h-5.951V43.68h-1.676L172.174,56.274V58.4h4.345v9.957c0,5.866,3.186,9.438,8.435,9.438h5.62V69.829Zm30.343-5.487c0-7.74-5.294-13.809-12.941-13.809-7.446,0-12.886,5.949-12.886,14.042s5.484,14.079,12.886,14.079c5.951,0,10.753-3.764,12.419-9.786h-8.129a4.656,4.656,0,0,1-4.3,2.471c-2.579,0-4.31-1.557-4.842-4.594h17.638a18.681,18.681,0,0,0,.166-2.4ZM204.82,57.639c2.464,0,4.175,1.422,4.892,4.06h-9.574C200.806,59.093,202.457,57.639,204.82,57.639Zm28.968-6.385a7.533,7.533,0,0,0-6.523,3.058L226,51.41h-5.474V77.8H228.7V64.388c0-3.364,1.209-4.776,4.1-4.776h3.171V51.306Z" transform="translate(-50.965 -46.18)" fill="#fff"/>
    </g>
</svg>
