<svg xmlns="http://www.w3.org/2000/svg" width="37" height="37" viewBox="0 0 37 37">
  <rect id="Rectangle_1312" data-name="Rectangle 1312" width="37" height="37" rx="18.5" fill="#fff"/>
  <path id="x-svgrepo-com" d="M4.2,4.2a.677.677,0,0,1,.958,0L11,10.042,16.844,4.2a.677.677,0,0,1,.958.958L11.958,11,17.8,16.844a.677.677,0,0,1-.958.958L11,11.958,5.156,17.8a.677.677,0,0,1-.958-.958L10.042,11,4.2,5.156A.677.677,0,0,1,4.2,4.2Z" transform="translate(8 7.5)" fill="#676f86" fill-rule="evenodd"/>
</svg>
