<svg xmlns="http://www.w3.org/2000/svg" width="37" height="37" viewBox="0 0 37 37">
  <g id="Group_722" data-name="Group 722" transform="translate(-110)">
    <rect id="Rectangle_756" data-name="Rectangle 756" width="37" height="37" rx="18.5" transform="translate(110)" fill="none" opacity="0.05"/>
  </g>
  <g id="copy-svgrepo-com" transform="translate(-121.148 8.801)">
    <g id="Group_1555" data-name="Group 1555" transform="translate(132.149)">
      <path id="Path_1019" data-name="Path 1019" d="M59.725,85.4H50.26a1.611,1.611,0,0,0-1.61,1.61v13.581a1.611,1.611,0,0,0,1.61,1.61h9.465a1.611,1.611,0,0,0,1.61-1.61V87.01A1.616,1.616,0,0,0,59.725,85.4Zm.48,15.186a.484.484,0,0,1-.484.484H50.255a.484.484,0,0,1-.484-.484V87.01a.484.484,0,0,1,.484-.484h9.465a.484.484,0,0,1,.484.484Z" transform="translate(-48.65 -82.2)" fill="#676f86"/>
      <path id="Path_1020" data-name="Path 1020" d="M146.525,0H137.06a1.611,1.611,0,0,0-1.61,1.61.563.563,0,0,0,1.126,0,.484.484,0,0,1,.484-.484h9.465a.484.484,0,0,1,.484.484V15.191a.484.484,0,0,1-.484.484.563.563,0,1,0,0,1.126,1.611,1.611,0,0,0,1.61-1.61V1.61A1.611,1.611,0,0,0,146.525,0Z" transform="translate(-132.249 0.199)" fill="#676f86"/>
    </g>
  </g>
</svg>
