<svg xmlns="http://www.w3.org/2000/svg" width="65" height="58.396" viewBox="0 0 65 58.396">
  <g id="Group_531" data-name="Group 531" transform="translate(-1259 -429)" opacity="0.3">
    <g id="Group_530" data-name="Group 530" transform="translate(1105 374.488)">
      <g id="Group_532" data-name="Group 532" transform="translate(154 38)">
        <path id="Path_159" data-name="Path 159" d="M42.725,84.276a4.949,4.949,0,0,0,.792-6.987A5.029,5.029,0,0,0,36.5,76.5a4.945,4.945,0,0,0-.792,6.988,5.022,5.022,0,0,0,7.019.785ZM37.48,82.063a2.667,2.667,0,0,1,.428-3.772,2.751,2.751,0,0,1,3.834.425,2.672,2.672,0,0,1-.432,3.774,2.745,2.745,0,0,1-3.83-.427Z" transform="translate(-26 -49)" fill="#147bd9"/>
        <path id="Path_160" data-name="Path 160" d="M64.541,25.876a1.585,1.585,0,0,0-1.161-.459c-.685,0-2.5,0-13.546,9.4l-.671.573A29.443,29.443,0,0,0,21.618,16.512h0A28.891,28.891,0,0,0,7.875,20.461C2.8,23.447,0,27.441,0,31.706c0,5.149,2.906,7.3,5.239,9.033,1.9,1.411,3.406,2.526,3.406,4.968s-1.5,3.556-3.4,4.966C2.91,52.4.006,54.555.008,59.7c0,4.264,2.8,8.259,7.88,11.247a28.913,28.913,0,0,0,13.744,3.957h.008a29.361,29.361,0,0,0,20.806-8.543,28.864,28.864,0,0,0,8.618-20.33c1.863-2.12,3.668-4.227,5.315-6.213,2.819-3.4,4.986-6.2,6.442-8.33C64.752,28.67,65.6,26.939,64.541,25.876ZM40.758,64.661a26.975,26.975,0,0,1-19.117,7.847h-.008c-7.74,0-19.224-5.38-19.226-12.805,0-3.941,2.071-5.477,4.264-7.1,2.05-1.52,4.374-3.243,4.373-6.894s-2.326-5.374-4.377-6.895C4.474,37.184,2.4,35.646,2.4,31.705c0-4.56,4.192-7.706,6.692-9.175a26.749,26.749,0,0,1,12.521-3.618h0A27.043,27.043,0,0,1,47.222,37.066c-5.2,4.544-10.84,9.784-15.037,13.994-6.971.9-7.921,5.548-8.615,8.961-.591,2.906-.975,4.311-3.218,4.491a1.2,1.2,0,0,0-.363,2.3,21.973,21.973,0,0,0,7.583,1.462h0A12.277,12.277,0,0,0,34.7,66.266,12.4,12.4,0,0,0,39.5,58.514c2.742-2.774,5.876-6.12,8.974-9.566A26.484,26.484,0,0,1,40.758,64.661Zm-3.666-6.374c-1.271,5.039-4.471,7.593-9.518,7.592h0a18,18,0,0,1-3.677-.408c1.28-1.305,1.68-3.269,2.026-4.971.659-3.241,1.283-6.309,6.384-7.037Zm16.569-18.95C48.9,45,43.147,51.368,38.407,56.206l-.734-.74L34.436,52.2c4.3-4.277,9.81-9.378,14.953-13.841h0c.6-.52,1.2-1.034,1.782-1.535a92.217,92.217,0,0,1,10.692-8.27A92.446,92.446,0,0,1,53.661,39.337Z" fill="#147bd9"/>
        <path id="Path_161" data-name="Path 161" d="M42.725,84.276a4.949,4.949,0,0,0,.792-6.987A5.029,5.029,0,0,0,36.5,76.5a4.945,4.945,0,0,0-.792,6.988,5.022,5.022,0,0,0,7.019.785ZM37.48,82.063a2.667,2.667,0,0,1,.428-3.772,2.751,2.751,0,0,1,3.834.425,2.672,2.672,0,0,1-.432,3.774,2.745,2.745,0,0,1-3.83-.427Z" transform="translate(-13.11 -52)" fill="#147bd9"/>
        <path id="Path_162" data-name="Path 162" d="M42.725,84.276a4.949,4.949,0,0,0,.792-6.987A5.029,5.029,0,0,0,36.5,76.5a4.945,4.945,0,0,0-.792,6.988,5.022,5.022,0,0,0,7.019.785ZM37.48,82.063a2.667,2.667,0,0,1,.428-3.772,2.751,2.751,0,0,1,3.834.425,2.672,2.672,0,0,1-.432,3.774,2.745,2.745,0,0,1-3.83-.427Z" transform="translate(-3.11 -43.068)" fill="#147bd9"/>
        <path id="Path_163" data-name="Path 163" d="M42.725,84.276a4.949,4.949,0,0,0,.792-6.987A5.029,5.029,0,0,0,36.5,76.5a4.945,4.945,0,0,0-.792,6.988,5.022,5.022,0,0,0,7.019.785ZM37.48,82.063a2.667,2.667,0,0,1,.428-3.772,2.751,2.751,0,0,1,3.834.425,2.672,2.672,0,0,1-.432,3.774,2.745,2.745,0,0,1-3.83-.427Z" transform="translate(-26 -21.004)" fill="#147bd9"/>
      </g>
    </g>
  </g>
</svg>
